<svg xmlns:dc="http://purl.org/dc/elements/1.1/" xmlns:cc="http://creativecommons.org/ns#" xmlns:rdf="http://www.w3.org/1999/02/22-rdf-syntax-ns#" xmlns:svg="http://www.w3.org/2000/svg" xmlns="http://www.w3.org/2000/svg" xmlns:sodipodi="http://sodipodi.sourceforge.net/DTD/sodipodi-0.dtd" xmlns:inkscape="http://www.inkscape.org/namespaces/inkscape" viewBox="0 0 6.3499999 7.93750025" version="1.1" x="0px" y="0px"><g transform="translate(0,-290.64999)"><path style="color:#000000;font-style:normal;font-variant:normal;font-weight:normal;font-stretch:normal;font-size:medium;line-height:normal;font-family:sans-serif;font-variant-ligatures:normal;font-variant-position:normal;font-variant-caps:normal;font-variant-numeric:normal;font-variant-alternates:normal;font-feature-settings:normal;text-indent:0;text-align:start;text-decoration:none;text-decoration-line:none;text-decoration-style:solid;text-decoration-color:#000000;letter-spacing:normal;word-spacing:normal;text-transform:none;writing-mode:lr-tb;direction:ltr;text-orientation:mixed;dominant-baseline:auto;baseline-shift:baseline;text-anchor:start;white-space:normal;shape-padding:0;clip-rule:nonzero;display:inline;overflow:visible;visibility:visible;opacity:1;isolation:auto;mix-blend-mode:normal;color-interpolation:sRGB;color-interpolation-filters:linearRGB;solid-color:#ffffff;solid-opacity:1;vector-effect:none;fill:#ffffff;fill-opacity:1;fill-rule:nonzero;stroke:none;stroke-width:0.5291667;stroke-linecap:round;stroke-linejoin:round;stroke-miterlimit:4;stroke-dasharray:none;stroke-dashoffset:0;stroke-opacity:1;color-rendering:auto;image-rendering:auto;shape-rendering:auto;text-rendering:auto;enable-background:accumulate" d="m 3.1760334,291.17912 c -1.01974,0 -1.8536336,0.83195 -1.8536336,1.85184 0,0.24393 0.048868,0.47637 0.1353923,0.68998 l -0.89348555,1.55983 a 0.2646098,0.26464879 0 0 0 0.24649659,0.3959 l 0.77566326,-0.0501 0.3446818,0.69722 a 0.2646098,0.26464879 0 0 0 0.4666382,0.014 L 3.175,294.9816 l 0.7772135,1.35619 a 0.2646098,0.26464879 0 0 0 0.4666383,-0.014 l 0.3446817,-0.69721 0.7756633,0.0501 a 0.2646098,0.26464879 0 0 0 0.2464967,-0.3959 l -0.8934857,-1.55931 c 0.086469,-0.21374 0.1353923,-0.4464 0.1353923,-0.6905 0,-1.01989 -0.8318265,-1.85184 -1.8515667,-1.85184 z m 0,0.52925 c 0.7337574,0 1.3218833,0.58872 1.3218833,1.32259 0,0.73387 -0.5881259,1.3226 -1.3218833,1.3226 -0.7337571,0 -1.3244669,-0.58873 -1.3244669,-1.3226 0,-0.73387 0.5907098,-1.32259 1.3244669,-1.32259 z m -1.4035318,2.52786 c 0.2324964,0.26965 0.5408432,0.47135 0.8914184,0.57266 l -0.4785237,0.83522 -0.2025716,-0.41037 a 0.2646098,0.26464879 0 0 0 -0.2542481,-0.14679 l -0.460437,0.03 z m 2.8049967,5.3e-4 0.504362,0.88018 -0.4604369,-0.03 a 0.2646098,0.26464879 0 0 0 -0.2542482,0.14679 l -0.2025716,0.41036 -0.4780069,-0.8347 c 0.3505724,-0.10114 0.6585834,-0.30301 0.8909016,-0.57266 z"/></g><text x="0" y="21.3500002" fill="#000000" font-size="5px" font-weight="bold" font-family="'Helvetica Neue', Helvetica, Arial-Unicode, Arial, Sans-serif">Created by Ardiansyah</text><text x="0" y="26.3500002" fill="#000000" font-size="5px" font-weight="bold" font-family="'Helvetica Neue', Helvetica, Arial-Unicode, Arial, Sans-serif">from the Noun Project</text></svg>