<svg xmlns="http://www.w3.org/2000/svg" xmlns:xlink="http://www.w3.org/1999/xlink" width="190" zoomAndPan="magnify" viewBox="0 0 142.5 183.000001" height="244" preserveAspectRatio="xMidYMid meet" version="1.0"><defs><clipPath id="b61a71cd80"><path d="M 0.214844 131 L 43 131 L 43 182.003906 L 0.214844 182.003906 Z M 0.214844 131 " clip-rule="nonzero"/></clipPath><clipPath id="da39688233"><path d="M 14.441406 0.449219 L 21 0.449219 L 21 7 L 14.441406 7 Z M 14.441406 0.449219 " clip-rule="nonzero"/></clipPath><clipPath id="c754225c62"><path d="M 121 7 L 127.820312 7 L 127.820312 15 L 121 15 Z M 121 7 " clip-rule="nonzero"/></clipPath><clipPath id="56bec46fbd"><path d="M 80 107 L 87 107 L 87 113.828125 L 80 113.828125 Z M 80 107 " clip-rule="nonzero"/></clipPath><clipPath id="58b554391d"><path d="M 14.441406 0.449219 L 120 0.449219 L 120 106 L 14.441406 106 Z M 14.441406 0.449219 " clip-rule="nonzero"/></clipPath><clipPath id="21644d4ea3"><path d="M 87 73 L 127.820312 73 L 127.820312 113.828125 L 87 113.828125 Z M 87 73 " clip-rule="nonzero"/></clipPath></defs><path fill="#0071bc" d="M 140.753906 128.484375 C 120.398438 127.558594 118.921875 134.207031 114.886719 144.882812 L 107 145.8125 L 105.152344 153.175781 C 105.152344 153.175781 109.3125 150.234375 110.480469 151.132812 C 111.097656 151.628906 109.925781 153.886719 109.925781 153.886719 L 112.328125 156.640625 L 112.296875 156.671875 L 112.484375 156.855469 L 112.667969 157.042969 L 112.699219 157.011719 L 115.441406 159.425781 C 115.441406 159.425781 117.71875 158.25 118.179688 158.867188 C 119.074219 160.011719 116.148438 164.21875 116.148438 164.21875 L 123.476562 162.363281 L 124.402344 154.441406 C 135.058594 150.421875 141.679688 148.9375 140.753906 128.484375 Z M 134.132812 140.394531 C 133.085938 146.429688 125.324219 146.429688 124.277344 140.394531 C 124.246094 140.210938 124.246094 139.996094 124.277344 139.808594 C 125.324219 133.777344 133.085938 133.777344 134.132812 139.808594 C 134.164062 139.996094 134.164062 140.179688 134.132812 140.394531 Z M 134.132812 140.394531 " fill-opacity="1" fill-rule="nonzero"/><path fill="#f15a24" d="M 107.988281 157.226562 C 109.125 156.082031 111.003906 156.082031 112.144531 157.226562 C 113.285156 158.371094 113.285156 160.257812 112.144531 161.402344 C 111.003906 162.546875 105.925781 163.476562 105.925781 163.476562 C 105.925781 163.476562 106.847656 158.371094 107.988281 157.226562 Z M 107.988281 157.226562 " fill-opacity="1" fill-rule="nonzero"/><g clip-path="url(#b61a71cd80)"><path fill="#009245" d="M 42.328125 166.105469 C 42.328125 175.914062 34.539062 182.007812 21.972656 182.007812 C 11.164062 182.007812 4.296875 178.078125 1.03125 169.972656 L 0.476562 168.644531 L 10.300781 163.539062 L 10.949219 165.148438 C 12.488281 169.015625 16.675781 171.304688 22.097656 171.304688 C 24.160156 171.304688 30.84375 170.933594 30.84375 166.105469 C 30.84375 165.085938 30.84375 162.023438 21.878906 161.03125 C 12.488281 159.917969 2.910156 157.226562 2.910156 145.871094 C 2.910156 135.847656 12.394531 131.269531 21.789062 131.207031 C 31.089844 131.207031 37.648438 134.609375 40.789062 141.015625 L 41.464844 142.375 L 32.105469 147.203125 L 31.367188 145.933594 C 30.070312 143.890625 26.40625 141.695312 22.035156 141.695312 C 17.199219 141.695312 14.304688 143.335938 14.304688 146.121094 C 14.304688 148.347656 16.707031 149.492188 22.894531 150.234375 C 29.210938 151.007812 42.328125 152.617188 42.328125 166.105469 Z M 42.328125 166.105469 " fill-opacity="1" fill-rule="nonzero"/></g><path fill="#fbb03b" d="M 47.933594 132.722656 L 84.550781 132.722656 L 84.550781 144.078125 L 59.421875 144.078125 L 59.421875 151.285156 L 83.65625 151.285156 L 83.65625 162.300781 L 59.421875 162.300781 L 59.421875 169.324219 L 84.550781 169.324219 L 84.550781 180.800781 L 47.933594 180.800781 Z M 47.933594 132.722656 " fill-opacity="1" fill-rule="nonzero"/><path fill="#ed1c24" d="M 136.660156 150.203125 C 137.183594 152.402344 137.460938 154.722656 137.460938 157.074219 C 137.335938 169.417969 129.699219 181.886719 112.945312 181.886719 C 105.214844 181.886719 98.777344 179.226562 94.375 174.183594 C 90.496094 169.757812 88.371094 163.695312 88.371094 157.101562 C 88.371094 150.511719 90.527344 144.355469 94.46875 139.808594 C 98.933594 134.609375 105.339844 131.855469 112.976562 131.855469 C 115.195312 131.855469 117.320312 132.105469 119.289062 132.570312 C 116.886719 135.261719 115.5625 138.757812 114.085938 142.746094 C 113.714844 142.71875 113.347656 142.71875 112.976562 142.71875 C 109.125 142.71875 106.015625 143.921875 103.707031 146.304688 C 101.121094 148.964844 99.703125 152.957031 99.824219 157.226562 C 99.917969 160.445312 101.121094 170.996094 112.976562 170.996094 C 122.460938 170.996094 125.941406 163.847656 126.066406 157.164062 C 126.066406 156.640625 126.066406 156.082031 126.035156 155.554688 L 126.496094 155.371094 C 130.46875 153.855469 133.949219 152.523438 136.660156 150.203125 Z M 136.660156 150.203125 " fill-opacity="1" fill-rule="nonzero"/><g clip-path="url(#da39688233)"><path fill="#00c99f" d="M 20.738281 3.597656 C 20.738281 4.015625 20.660156 4.417969 20.5 4.800781 C 20.339844 5.1875 20.113281 5.527344 19.816406 5.824219 C 19.519531 6.121094 19.179688 6.347656 18.792969 6.507812 C 18.410156 6.667969 18.007812 6.746094 17.589844 6.746094 C 17.171875 6.746094 16.769531 6.667969 16.382812 6.507812 C 16 6.347656 15.65625 6.121094 15.363281 5.824219 C 15.066406 5.527344 14.839844 5.1875 14.679688 4.800781 C 14.519531 4.417969 14.441406 4.015625 14.441406 3.597656 C 14.441406 3.179688 14.519531 2.777344 14.679688 2.390625 C 14.839844 2.007812 15.066406 1.664062 15.363281 1.371094 C 15.65625 1.074219 16 0.847656 16.382812 0.6875 C 16.769531 0.527344 17.171875 0.449219 17.589844 0.449219 C 18.007812 0.449219 18.410156 0.527344 18.792969 0.6875 C 19.179688 0.847656 19.519531 1.074219 19.816406 1.371094 C 20.113281 1.664062 20.339844 2.007812 20.5 2.390625 C 20.660156 2.777344 20.738281 3.179688 20.738281 3.597656 Z M 20.738281 3.597656 " fill-opacity="1" fill-rule="nonzero"/></g><g clip-path="url(#c754225c62)"><path fill="#ffa100" d="M 127.820312 10.945312 C 127.820312 11.363281 127.742188 11.765625 127.582031 12.152344 C 127.421875 12.539062 127.191406 12.878906 126.898438 13.171875 C 126.601562 13.46875 126.261719 13.695312 125.875 13.855469 C 125.492188 14.015625 125.089844 14.09375 124.671875 14.09375 C 124.253906 14.09375 123.851562 14.015625 123.464844 13.855469 C 123.078125 13.695312 122.738281 13.46875 122.445312 13.171875 C 122.148438 12.878906 121.921875 12.539062 121.761719 12.152344 C 121.601562 11.765625 121.519531 11.363281 121.523438 10.945312 C 121.519531 10.527344 121.601562 10.125 121.761719 9.742188 C 121.921875 9.355469 122.148438 9.015625 122.445312 8.71875 C 122.738281 8.421875 123.078125 8.195312 123.464844 8.035156 C 123.851562 7.875 124.253906 7.796875 124.671875 7.796875 C 125.089844 7.796875 125.492188 7.875 125.875 8.035156 C 126.261719 8.195312 126.601562 8.421875 126.898438 8.71875 C 127.191406 9.015625 127.421875 9.355469 127.582031 9.742188 C 127.742188 10.125 127.820312 10.527344 127.820312 10.945312 Z M 127.820312 10.945312 " fill-opacity="1" fill-rule="nonzero"/></g><g clip-path="url(#56bec46fbd)"><path fill="#00c99f" d="M 86.878906 110.679688 C 86.878906 111.097656 86.796875 111.5 86.636719 111.882812 C 86.476562 112.269531 86.25 112.609375 85.953125 112.90625 C 85.660156 113.203125 85.320312 113.429688 84.933594 113.589844 C 84.546875 113.75 84.144531 113.828125 83.726562 113.828125 C 83.308594 113.828125 82.910156 113.75 82.523438 113.589844 C 82.136719 113.429688 81.796875 113.203125 81.5 112.90625 C 81.207031 112.609375 80.976562 112.269531 80.816406 111.882812 C 80.660156 111.5 80.578125 111.097656 80.578125 110.679688 C 80.578125 110.261719 80.660156 109.859375 80.816406 109.472656 C 80.976562 109.085938 81.207031 108.746094 81.5 108.453125 C 81.796875 108.15625 82.136719 107.929688 82.523438 107.769531 C 82.910156 107.609375 83.308594 107.53125 83.726562 107.53125 C 84.144531 107.53125 84.546875 107.609375 84.933594 107.769531 C 85.320312 107.929688 85.660156 108.15625 85.953125 108.453125 C 86.25 108.746094 86.476562 109.085938 86.636719 109.472656 C 86.796875 109.859375 86.878906 110.261719 86.878906 110.679688 Z M 86.878906 110.679688 " fill-opacity="1" fill-rule="nonzero"/></g><path fill="#ff4d69" d="M 23.886719 102.28125 C 23.886719 102.699219 23.808594 103.101562 23.648438 103.484375 C 23.488281 103.871094 23.261719 104.210938 22.964844 104.507812 C 22.671875 104.800781 22.328125 105.03125 21.945312 105.191406 C 21.558594 105.351562 21.15625 105.429688 20.738281 105.429688 C 20.320312 105.429688 19.917969 105.351562 19.535156 105.191406 C 19.148438 105.03125 18.808594 104.800781 18.511719 104.507812 C 18.214844 104.210938 17.988281 103.871094 17.828125 103.484375 C 17.667969 103.101562 17.589844 102.699219 17.589844 102.28125 C 17.589844 101.863281 17.667969 101.460938 17.828125 101.074219 C 17.988281 100.6875 18.214844 100.347656 18.511719 100.054688 C 18.808594 99.757812 19.148438 99.53125 19.535156 99.371094 C 19.917969 99.210938 20.320312 99.132812 20.738281 99.132812 C 21.15625 99.132812 21.558594 99.210938 21.945312 99.371094 C 22.328125 99.53125 22.671875 99.757812 22.964844 100.054688 C 23.261719 100.347656 23.488281 100.6875 23.648438 101.074219 C 23.808594 101.460938 23.886719 101.863281 23.886719 102.28125 Z M 23.886719 102.28125 " fill-opacity="1" fill-rule="nonzero"/><g clip-path="url(#58b554391d)"><path fill="#e7efff" d="M 119.421875 52.9375 C 119.421875 54.65625 119.335938 56.371094 119.167969 58.082031 C 119 59.792969 118.75 61.492188 118.414062 63.179688 C 118.078125 64.867188 117.660156 66.53125 117.160156 68.175781 C 116.664062 69.820312 116.085938 71.4375 115.425781 73.027344 C 114.769531 74.613281 114.035156 76.167969 113.222656 77.683594 C 112.414062 79.199219 111.53125 80.671875 110.574219 82.101562 C 109.621094 83.53125 108.597656 84.910156 107.507812 86.238281 C 106.417969 87.566406 105.261719 88.839844 104.046875 90.054688 C 102.832031 91.269531 101.558594 92.425781 100.230469 93.515625 C 98.902344 94.605469 97.523438 95.628906 96.09375 96.582031 C 94.664062 97.539062 93.191406 98.421875 91.675781 99.230469 C 90.160156 100.042969 88.605469 100.777344 87.019531 101.433594 C 85.429688 102.09375 83.8125 102.671875 82.167969 103.167969 C 80.523438 103.667969 78.859375 104.085938 77.171875 104.421875 C 75.484375 104.757812 73.785156 105.007812 72.074219 105.175781 C 70.363281 105.34375 68.648438 105.429688 66.929688 105.429688 C 65.210938 105.429688 63.496094 105.34375 61.785156 105.175781 C 60.074219 105.007812 58.375 104.757812 56.691406 104.421875 C 55.003906 104.085938 53.339844 103.667969 51.695312 103.167969 C 50.046875 102.671875 48.433594 102.09375 46.84375 101.433594 C 45.253906 100.777344 43.703125 100.042969 42.1875 99.230469 C 40.671875 98.421875 39.199219 97.539062 37.769531 96.582031 C 36.339844 95.628906 34.960938 94.605469 33.632812 93.515625 C 32.300781 92.425781 31.03125 91.269531 29.8125 90.054688 C 28.597656 88.839844 27.445312 87.566406 26.355469 86.238281 C 25.265625 84.910156 24.242188 83.53125 23.285156 82.101562 C 22.332031 80.671875 21.449219 79.199219 20.636719 77.683594 C 19.828125 76.167969 19.09375 74.613281 18.4375 73.027344 C 17.777344 71.4375 17.199219 69.820312 16.699219 68.175781 C 16.203125 66.53125 15.785156 64.867188 15.449219 63.179688 C 15.113281 61.492188 14.859375 59.792969 14.691406 58.082031 C 14.523438 56.371094 14.441406 54.65625 14.441406 52.9375 C 14.441406 51.21875 14.523438 49.503906 14.691406 47.792969 C 14.859375 46.082031 15.113281 44.382812 15.449219 42.699219 C 15.785156 41.011719 16.203125 39.347656 16.699219 37.703125 C 17.199219 36.054688 17.777344 34.441406 18.4375 32.851562 C 19.09375 31.261719 19.828125 29.710938 20.636719 28.195312 C 21.449219 26.679688 22.332031 25.207031 23.285156 23.777344 C 24.242188 22.347656 25.265625 20.96875 26.355469 19.640625 C 27.445312 18.308594 28.597656 17.039062 29.8125 15.820312 C 31.03125 14.605469 32.300781 13.453125 33.632812 12.363281 C 34.960938 11.273438 36.339844 10.25 37.769531 9.292969 C 39.199219 8.339844 40.671875 7.457031 42.1875 6.644531 C 43.703125 5.835938 45.253906 5.101562 46.84375 4.445312 C 48.433594 3.785156 50.046875 3.207031 51.695312 2.707031 C 53.339844 2.210938 55.003906 1.792969 56.691406 1.457031 C 58.375 1.121094 60.074219 0.871094 61.785156 0.699219 C 63.496094 0.53125 65.210938 0.449219 66.929688 0.449219 C 68.648438 0.449219 70.363281 0.53125 72.074219 0.699219 C 73.785156 0.871094 75.484375 1.121094 77.171875 1.457031 C 78.859375 1.792969 80.523438 2.210938 82.167969 2.707031 C 83.8125 3.207031 85.429688 3.785156 87.019531 4.445312 C 88.605469 5.101562 90.160156 5.835938 91.675781 6.644531 C 93.191406 7.457031 94.664062 8.339844 96.09375 9.292969 C 97.523438 10.25 98.902344 11.273438 100.230469 12.363281 C 101.558594 13.453125 102.832031 14.605469 104.046875 15.820312 C 105.261719 17.039062 106.417969 18.308594 107.507812 19.640625 C 108.597656 20.96875 109.621094 22.347656 110.574219 23.777344 C 111.53125 25.207031 112.414062 26.679688 113.222656 28.195312 C 114.035156 29.710938 114.769531 31.261719 115.425781 32.851562 C 116.085938 34.441406 116.664062 36.054688 117.160156 37.703125 C 117.660156 39.347656 118.078125 41.011719 118.414062 42.699219 C 118.75 44.382812 119 46.082031 119.167969 47.792969 C 119.335938 49.503906 119.421875 51.21875 119.421875 52.9375 Z M 119.421875 52.9375 " fill-opacity="1" fill-rule="nonzero"/></g><path fill="#a5bced" d="M 112.074219 18.292969 L 112.074219 79.71875 C 109.828125 83.5 107.152344 86.945312 104.046875 90.054688 C 100.9375 93.164062 97.492188 95.839844 93.710938 98.082031 L 40.171875 98.082031 C 36.386719 95.839844 32.9375 93.164062 29.824219 90.054688 C 26.714844 86.945312 24.035156 83.5 21.789062 79.71875 L 21.789062 18.292969 Z M 112.074219 18.292969 " fill-opacity="1" fill-rule="nonzero"/><path fill="#323fd4" d="M 51.183594 7.796875 L 107.875 7.796875 C 108.148438 7.796875 108.421875 7.824219 108.691406 7.878906 C 108.964844 7.929688 109.226562 8.011719 109.480469 8.117188 C 109.734375 8.222656 109.976562 8.351562 110.207031 8.503906 C 110.4375 8.65625 110.648438 8.832031 110.84375 9.027344 C 111.039062 9.222656 111.210938 9.433594 111.367188 9.664062 C 111.519531 9.890625 111.648438 10.132812 111.753906 10.390625 C 111.859375 10.644531 111.9375 10.90625 111.992188 11.175781 C 112.046875 11.445312 112.074219 11.71875 112.074219 11.996094 L 112.074219 18.292969 L 51.183594 18.292969 Z M 51.183594 7.796875 " fill-opacity="1" fill-rule="nonzero"/><path fill="#4e6aff" d="M 57.484375 18.292969 L 21.789062 18.292969 L 21.789062 11.996094 C 21.789062 11.71875 21.816406 11.445312 21.871094 11.175781 C 21.921875 10.90625 22.003906 10.644531 22.109375 10.390625 C 22.214844 10.132812 22.34375 9.890625 22.496094 9.664062 C 22.648438 9.433594 22.824219 9.222656 23.019531 9.027344 C 23.214844 8.832031 23.425781 8.65625 23.65625 8.503906 C 23.882812 8.351562 24.125 8.222656 24.382812 8.117188 C 24.636719 8.011719 24.898438 7.929688 25.167969 7.878906 C 25.4375 7.824219 25.710938 7.796875 25.988281 7.796875 L 51.183594 7.796875 C 51.636719 7.796875 52.078125 7.867188 52.507812 8.007812 C 52.9375 8.148438 53.332031 8.355469 53.695312 8.625 C 54.058594 8.894531 54.371094 9.214844 54.628906 9.582031 C 54.890625 9.953125 55.085938 10.355469 55.214844 10.789062 Z M 57.484375 18.292969 " fill-opacity="1" fill-rule="nonzero"/><path fill="#ffffff" d="M 52.234375 13.046875 C 52.234375 13.324219 52.179688 13.59375 52.074219 13.847656 C 51.96875 14.105469 51.816406 14.332031 51.617188 14.53125 C 51.421875 14.726562 51.195312 14.878906 50.9375 14.984375 C 50.679688 15.09375 50.414062 15.144531 50.132812 15.144531 C 49.855469 15.144531 49.585938 15.09375 49.332031 14.984375 C 49.074219 14.878906 48.847656 14.726562 48.648438 14.53125 C 48.453125 14.332031 48.300781 14.105469 48.195312 13.847656 C 48.085938 13.59375 48.035156 13.324219 48.035156 13.046875 C 48.035156 12.765625 48.085938 12.5 48.195312 12.242188 C 48.300781 11.984375 48.453125 11.757812 48.648438 11.5625 C 48.847656 11.363281 49.074219 11.210938 49.332031 11.105469 C 49.585938 11 49.855469 10.945312 50.132812 10.945312 C 50.414062 10.945312 50.679688 11 50.9375 11.105469 C 51.195312 11.210938 51.421875 11.363281 51.617188 11.5625 C 51.816406 11.757812 51.96875 11.984375 52.074219 12.242188 C 52.179688 12.5 52.234375 12.765625 52.234375 13.046875 Z M 52.234375 13.046875 " fill-opacity="1" fill-rule="nonzero"/><path fill="#ffffff" d="M 108.921875 13.046875 C 108.921875 13.324219 108.871094 13.59375 108.765625 13.847656 C 108.65625 14.105469 108.503906 14.332031 108.308594 14.53125 C 108.113281 14.726562 107.882812 14.878906 107.628906 14.984375 C 107.371094 15.09375 107.101562 15.144531 106.824219 15.144531 C 106.546875 15.144531 106.277344 15.09375 106.019531 14.984375 C 105.761719 14.878906 105.535156 14.726562 105.339844 14.53125 C 105.140625 14.332031 104.992188 14.105469 104.882812 13.847656 C 104.777344 13.59375 104.722656 13.324219 104.722656 13.046875 C 104.722656 12.765625 104.777344 12.5 104.882812 12.242188 C 104.992188 11.984375 105.140625 11.757812 105.339844 11.5625 C 105.535156 11.363281 105.761719 11.210938 106.019531 11.105469 C 106.277344 11 106.546875 10.945312 106.824219 10.945312 C 107.101562 10.945312 107.371094 11 107.628906 11.105469 C 107.882812 11.210938 108.113281 11.363281 108.308594 11.5625 C 108.503906 11.757812 108.65625 11.984375 108.765625 12.242188 C 108.871094 12.5 108.921875 12.765625 108.921875 13.046875 Z M 108.921875 13.046875 " fill-opacity="1" fill-rule="nonzero"/><path fill="#ffffff" d="M 101.574219 13.046875 C 101.574219 13.324219 101.523438 13.59375 101.414062 13.847656 C 101.308594 14.105469 101.15625 14.332031 100.960938 14.53125 C 100.761719 14.726562 100.535156 14.878906 100.277344 14.984375 C 100.023438 15.09375 99.753906 15.144531 99.476562 15.144531 C 99.195312 15.144531 98.929688 15.09375 98.671875 14.984375 C 98.414062 14.878906 98.1875 14.726562 97.992188 14.53125 C 97.792969 14.332031 97.640625 14.105469 97.535156 13.847656 C 97.429688 13.59375 97.375 13.324219 97.375 13.046875 C 97.375 12.765625 97.429688 12.5 97.535156 12.242188 C 97.640625 11.984375 97.792969 11.757812 97.992188 11.5625 C 98.1875 11.363281 98.414062 11.210938 98.671875 11.105469 C 98.929688 11 99.195312 10.945312 99.476562 10.945312 C 99.753906 10.945312 100.023438 11 100.277344 11.105469 C 100.535156 11.210938 100.761719 11.363281 100.960938 11.5625 C 101.15625 11.757812 101.308594 11.984375 101.414062 12.242188 C 101.523438 12.5 101.574219 12.765625 101.574219 13.046875 Z M 101.574219 13.046875 " fill-opacity="1" fill-rule="nonzero"/><path fill="#ffffff" d="M 94.226562 13.046875 C 94.226562 13.324219 94.171875 13.59375 94.066406 13.847656 C 93.960938 14.105469 93.808594 14.332031 93.609375 14.53125 C 93.414062 14.726562 93.1875 14.878906 92.929688 14.984375 C 92.671875 15.09375 92.40625 15.144531 92.125 15.144531 C 91.847656 15.144531 91.582031 15.09375 91.324219 14.984375 C 91.066406 14.878906 90.839844 14.726562 90.640625 14.53125 C 90.445312 14.332031 90.292969 14.105469 90.1875 13.847656 C 90.082031 13.59375 90.027344 13.324219 90.027344 13.046875 C 90.027344 12.765625 90.082031 12.5 90.1875 12.242188 C 90.292969 11.984375 90.445312 11.757812 90.640625 11.5625 C 90.839844 11.363281 91.066406 11.210938 91.324219 11.105469 C 91.582031 11 91.847656 10.945312 92.125 10.945312 C 92.40625 10.945312 92.671875 11 92.929688 11.105469 C 93.1875 11.210938 93.414062 11.363281 93.609375 11.5625 C 93.808594 11.757812 93.960938 11.984375 94.066406 12.242188 C 94.171875 12.5 94.226562 12.765625 94.226562 13.046875 Z M 94.226562 13.046875 " fill-opacity="1" fill-rule="nonzero"/><path fill="#ffffff" d="M 107.875 24.59375 L 107.875 85.765625 C 105.472656 88.777344 102.769531 91.480469 99.757812 93.882812 L 34.101562 93.882812 C 31.09375 91.480469 28.386719 88.777344 25.988281 85.765625 L 25.988281 24.59375 C 25.988281 24.316406 26.042969 24.046875 26.148438 23.789062 C 26.253906 23.53125 26.40625 23.304688 26.601562 23.109375 C 26.800781 22.914062 27.027344 22.761719 27.285156 22.652344 C 27.542969 22.546875 27.808594 22.492188 28.085938 22.492188 L 105.773438 22.492188 C 106.050781 22.492188 106.320312 22.546875 106.578125 22.652344 C 106.835938 22.761719 107.0625 22.914062 107.257812 23.109375 C 107.457031 23.304688 107.609375 23.53125 107.714844 23.789062 C 107.820312 24.046875 107.875 24.316406 107.875 24.59375 Z M 107.875 24.59375 " fill-opacity="1" fill-rule="nonzero"/><path fill="#8fa2ff" d="M 54.332031 83.382812 L 37.535156 83.382812 C 37.257812 83.382812 36.988281 83.332031 36.734375 83.222656 C 36.476562 83.117188 36.25 82.964844 36.050781 82.769531 C 35.855469 82.570312 35.703125 82.34375 35.597656 82.085938 C 35.488281 81.832031 35.4375 81.5625 35.4375 81.285156 C 35.4375 81.003906 35.488281 80.738281 35.597656 80.480469 C 35.703125 80.222656 35.855469 79.996094 36.050781 79.800781 C 36.25 79.601562 36.476562 79.449219 36.734375 79.34375 C 36.988281 79.238281 37.257812 79.183594 37.535156 79.183594 L 54.332031 79.183594 C 54.613281 79.183594 54.878906 79.238281 55.136719 79.34375 C 55.394531 79.449219 55.621094 79.601562 55.816406 79.800781 C 56.015625 79.996094 56.167969 80.222656 56.273438 80.480469 C 56.378906 80.738281 56.433594 81.003906 56.433594 81.285156 C 56.433594 81.5625 56.378906 81.832031 56.273438 82.085938 C 56.167969 82.34375 56.015625 82.570312 55.816406 82.769531 C 55.621094 82.964844 55.394531 83.117188 55.136719 83.222656 C 54.878906 83.332031 54.613281 83.382812 54.332031 83.382812 Z M 54.332031 83.382812 " fill-opacity="1" fill-rule="nonzero"/><path fill="#8fa2ff" d="M 81.628906 90.730469 L 37.535156 90.730469 C 37.257812 90.730469 36.988281 90.679688 36.734375 90.574219 C 36.476562 90.464844 36.25 90.3125 36.050781 90.117188 C 35.855469 89.921875 35.703125 89.695312 35.597656 89.4375 C 35.488281 89.179688 35.4375 88.910156 35.4375 88.632812 C 35.4375 88.355469 35.488281 88.085938 35.597656 87.828125 C 35.703125 87.570312 35.855469 87.34375 36.050781 87.148438 C 36.25 86.953125 36.476562 86.800781 36.734375 86.691406 C 36.988281 86.585938 37.257812 86.53125 37.535156 86.53125 L 81.628906 86.53125 C 81.90625 86.53125 82.175781 86.585938 82.433594 86.691406 C 82.6875 86.800781 82.917969 86.953125 83.113281 87.148438 C 83.308594 87.34375 83.460938 87.570312 83.566406 87.828125 C 83.675781 88.085938 83.726562 88.355469 83.726562 88.632812 C 83.726562 88.910156 83.675781 89.179688 83.566406 89.4375 C 83.460938 89.695312 83.308594 89.921875 83.113281 90.117188 C 82.917969 90.3125 82.6875 90.464844 82.433594 90.574219 C 82.175781 90.679688 81.90625 90.730469 81.628906 90.730469 Z M 81.628906 90.730469 " fill-opacity="1" fill-rule="nonzero"/><path fill="#ff4d69" d="M 34.386719 28.792969 L 99.476562 28.792969 C 99.753906 28.792969 100.023438 28.847656 100.277344 28.953125 C 100.535156 29.058594 100.761719 29.210938 100.960938 29.40625 C 101.15625 29.605469 101.308594 29.832031 101.414062 30.089844 C 101.523438 30.347656 101.574219 30.613281 101.574219 30.894531 L 101.574219 64.488281 C 101.574219 64.765625 101.523438 65.03125 101.414062 65.289062 C 101.308594 65.546875 101.15625 65.773438 100.960938 65.972656 C 100.761719 66.167969 100.535156 66.320312 100.277344 66.425781 C 100.023438 66.535156 99.753906 66.585938 99.476562 66.585938 L 34.386719 66.585938 C 34.109375 66.585938 33.839844 66.535156 33.582031 66.425781 C 33.324219 66.320312 33.097656 66.167969 32.902344 65.972656 C 32.703125 65.773438 32.554688 65.546875 32.445312 65.289062 C 32.339844 65.03125 32.285156 64.765625 32.285156 64.488281 L 32.285156 30.894531 C 32.285156 30.613281 32.339844 30.347656 32.445312 30.089844 C 32.554688 29.832031 32.703125 29.605469 32.902344 29.40625 C 33.097656 29.210938 33.324219 29.058594 33.582031 28.953125 C 33.839844 28.847656 34.109375 28.792969 34.386719 28.792969 Z M 34.386719 28.792969 " fill-opacity="1" fill-rule="nonzero"/><path fill="#ffffff" d="M 56.433594 41.390625 C 56.15625 41.390625 55.882812 41.417969 55.613281 41.472656 C 55.34375 41.523438 55.082031 41.605469 54.824219 41.710938 C 54.570312 41.816406 54.328125 41.945312 54.101562 42.097656 C 53.871094 42.25 53.660156 42.425781 53.464844 42.621094 C 53.269531 42.816406 53.09375 43.027344 52.941406 43.257812 C 52.789062 43.488281 52.660156 43.726562 52.554688 43.984375 C 52.449219 44.238281 52.367188 44.5 52.3125 44.769531 C 52.261719 45.042969 52.234375 45.3125 52.234375 45.589844 L 52.234375 52.9375 C 52.234375 53.078125 52.261719 53.210938 52.3125 53.339844 C 52.367188 53.46875 52.441406 53.582031 52.539062 53.679688 C 52.640625 53.78125 52.753906 53.855469 52.882812 53.910156 C 53.011719 53.960938 53.144531 53.988281 53.285156 53.988281 C 53.421875 53.988281 53.554688 53.960938 53.683594 53.910156 C 53.8125 53.855469 53.925781 53.78125 54.027344 53.679688 C 54.125 53.582031 54.199219 53.46875 54.253906 53.339844 C 54.304688 53.210938 54.332031 53.078125 54.332031 52.9375 L 54.332031 49.789062 L 58.53125 49.789062 L 58.53125 52.9375 C 58.53125 53.078125 58.558594 53.210938 58.613281 53.339844 C 58.664062 53.46875 58.742188 53.582031 58.839844 53.679688 C 58.9375 53.78125 59.050781 53.855469 59.179688 53.910156 C 59.308594 53.960938 59.441406 53.988281 59.582031 53.988281 C 59.722656 53.988281 59.855469 53.960938 59.984375 53.910156 C 60.113281 53.855469 60.226562 53.78125 60.324219 53.679688 C 60.421875 53.582031 60.5 53.46875 60.550781 53.339844 C 60.605469 53.210938 60.632812 53.078125 60.632812 52.9375 L 60.632812 45.589844 C 60.632812 45.3125 60.605469 45.042969 60.550781 44.769531 C 60.496094 44.5 60.417969 44.238281 60.3125 43.984375 C 60.207031 43.726562 60.078125 43.488281 59.925781 43.257812 C 59.769531 43.027344 59.597656 42.816406 59.402344 42.621094 C 59.207031 42.425781 58.996094 42.25 58.765625 42.097656 C 58.535156 41.945312 58.292969 41.816406 58.039062 41.710938 C 57.785156 41.605469 57.523438 41.523438 57.253906 41.472656 C 56.980469 41.417969 56.707031 41.390625 56.433594 41.390625 Z M 54.332031 47.691406 L 54.332031 45.589844 C 54.332031 45.3125 54.386719 45.042969 54.492188 44.785156 C 54.597656 44.53125 54.75 44.300781 54.949219 44.105469 C 55.144531 43.910156 55.371094 43.757812 55.628906 43.648438 C 55.886719 43.542969 56.152344 43.492188 56.433594 43.492188 C 56.710938 43.492188 56.980469 43.542969 57.234375 43.648438 C 57.492188 43.757812 57.71875 43.910156 57.917969 44.105469 C 58.113281 44.300781 58.265625 44.53125 58.371094 44.785156 C 58.480469 45.042969 58.53125 45.3125 58.53125 45.589844 L 58.53125 47.691406 Z M 54.332031 47.691406 " fill-opacity="1" fill-rule="nonzero"/><path fill="#ffffff" d="M 65.882812 41.390625 L 63.78125 41.390625 C 63.640625 41.390625 63.507812 41.417969 63.378906 41.472656 C 63.25 41.523438 63.136719 41.601562 63.039062 41.699219 C 62.941406 41.796875 62.863281 41.910156 62.8125 42.039062 C 62.757812 42.167969 62.730469 42.300781 62.730469 42.441406 L 62.730469 52.9375 C 62.730469 53.078125 62.757812 53.210938 62.8125 53.339844 C 62.863281 53.46875 62.941406 53.582031 63.039062 53.679688 C 63.136719 53.78125 63.25 53.855469 63.378906 53.910156 C 63.507812 53.960938 63.640625 53.988281 63.78125 53.988281 L 65.882812 53.988281 C 66.226562 53.988281 66.566406 53.953125 66.90625 53.886719 C 67.242188 53.820312 67.570312 53.722656 67.890625 53.589844 C 68.207031 53.457031 68.511719 53.296875 68.796875 53.105469 C 69.082031 52.914062 69.347656 52.695312 69.59375 52.453125 C 69.835938 52.207031 70.054688 51.941406 70.246094 51.65625 C 70.4375 51.371094 70.597656 51.066406 70.730469 50.75 C 70.863281 50.429688 70.960938 50.101562 71.03125 49.761719 C 71.097656 49.425781 71.128906 49.085938 71.128906 48.738281 L 71.128906 46.640625 C 71.128906 46.296875 71.097656 45.953125 71.03125 45.617188 C 70.960938 45.277344 70.863281 44.949219 70.730469 44.632812 C 70.597656 44.3125 70.4375 44.011719 70.246094 43.722656 C 70.054688 43.4375 69.835938 43.171875 69.59375 42.929688 C 69.347656 42.683594 69.082031 42.46875 68.796875 42.277344 C 68.511719 42.085938 68.207031 41.921875 67.890625 41.789062 C 67.570312 41.660156 67.242188 41.558594 66.90625 41.492188 C 66.566406 41.425781 66.226562 41.390625 65.882812 41.390625 Z M 69.03125 48.738281 C 69.03125 49.15625 68.949219 49.558594 68.789062 49.945312 C 68.632812 50.332031 68.402344 50.671875 68.109375 50.964844 C 67.8125 51.261719 67.472656 51.488281 67.085938 51.648438 C 66.699219 51.808594 66.296875 51.890625 65.882812 51.890625 L 64.832031 51.890625 L 64.832031 43.492188 L 65.882812 43.492188 C 66.296875 43.492188 66.699219 43.570312 67.085938 43.730469 C 67.472656 43.890625 67.8125 44.117188 68.109375 44.414062 C 68.402344 44.707031 68.632812 45.050781 68.789062 45.433594 C 68.949219 45.820312 69.03125 46.222656 69.03125 46.640625 Z M 69.03125 48.738281 " fill-opacity="1" fill-rule="nonzero"/><path fill="#ffffff" d="M 77.953125 46.640625 L 76.902344 46.640625 C 76.695312 46.640625 76.496094 46.601562 76.300781 46.519531 C 76.109375 46.441406 75.9375 46.328125 75.789062 46.179688 C 75.644531 46.03125 75.527344 45.859375 75.449219 45.667969 C 75.371094 45.476562 75.328125 45.273438 75.328125 45.066406 C 75.328125 44.855469 75.371094 44.65625 75.449219 44.460938 C 75.527344 44.269531 75.644531 44.097656 75.789062 43.953125 C 75.9375 43.804688 76.109375 43.691406 76.300781 43.609375 C 76.496094 43.53125 76.695312 43.492188 76.902344 43.492188 L 80.578125 43.492188 C 80.71875 43.492188 80.851562 43.464844 80.980469 43.410156 C 81.109375 43.355469 81.222656 43.28125 81.320312 43.183594 C 81.417969 43.085938 81.496094 42.972656 81.546875 42.84375 C 81.601562 42.714844 81.628906 42.578125 81.628906 42.441406 C 81.628906 42.300781 81.601562 42.167969 81.546875 42.039062 C 81.496094 41.910156 81.417969 41.796875 81.320312 41.699219 C 81.222656 41.601562 81.109375 41.523438 80.980469 41.472656 C 80.851562 41.417969 80.71875 41.390625 80.578125 41.390625 L 76.902344 41.390625 C 76.417969 41.390625 75.949219 41.484375 75.5 41.671875 C 75.046875 41.855469 74.652344 42.121094 74.304688 42.46875 C 73.960938 42.8125 73.695312 43.207031 73.507812 43.660156 C 73.324219 44.109375 73.230469 44.578125 73.230469 45.066406 C 73.230469 45.550781 73.324219 46.019531 73.507812 46.472656 C 73.695312 46.921875 73.960938 47.320312 74.304688 47.664062 C 74.652344 48.007812 75.046875 48.273438 75.5 48.460938 C 75.949219 48.644531 76.417969 48.738281 76.902344 48.738281 L 77.953125 48.738281 C 78.164062 48.738281 78.363281 48.78125 78.554688 48.859375 C 78.75 48.9375 78.917969 49.054688 79.066406 49.199219 C 79.214844 49.347656 79.328125 49.519531 79.410156 49.710938 C 79.488281 49.90625 79.527344 50.105469 79.527344 50.3125 C 79.527344 50.523438 79.488281 50.722656 79.410156 50.917969 C 79.328125 51.109375 79.214844 51.28125 79.066406 51.429688 C 78.917969 51.574219 78.75 51.6875 78.554688 51.769531 C 78.363281 51.847656 78.164062 51.890625 77.953125 51.890625 L 74.28125 51.890625 C 74.140625 51.890625 74.007812 51.914062 73.878906 51.96875 C 73.75 52.023438 73.636719 52.097656 73.539062 52.195312 C 73.4375 52.296875 73.363281 52.410156 73.308594 52.539062 C 73.257812 52.664062 73.230469 52.800781 73.230469 52.9375 C 73.230469 53.078125 73.257812 53.210938 73.308594 53.339844 C 73.363281 53.46875 73.4375 53.582031 73.539062 53.679688 C 73.636719 53.78125 73.75 53.855469 73.878906 53.910156 C 74.007812 53.960938 74.140625 53.988281 74.28125 53.988281 L 77.953125 53.988281 C 78.441406 53.988281 78.910156 53.894531 79.359375 53.710938 C 79.808594 53.523438 80.207031 53.257812 80.550781 52.914062 C 80.898438 52.566406 81.164062 52.171875 81.347656 51.71875 C 81.535156 51.269531 81.628906 50.800781 81.628906 50.3125 C 81.628906 49.828125 81.535156 49.359375 81.347656 48.910156 C 81.164062 48.457031 80.898438 48.0625 80.550781 47.714844 C 80.207031 47.371094 79.808594 47.105469 79.359375 46.917969 C 78.910156 46.734375 78.441406 46.640625 77.953125 46.640625 Z M 77.953125 46.640625 " fill-opacity="1" fill-rule="nonzero"/><path fill="#a5bced" d="M 97.375 73.933594 L 36.484375 73.933594 C 36.347656 73.933594 36.214844 73.910156 36.085938 73.855469 C 35.957031 73.800781 35.84375 73.726562 35.742188 73.628906 C 35.644531 73.53125 35.570312 73.414062 35.515625 73.289062 C 35.464844 73.160156 35.4375 73.023438 35.4375 72.886719 C 35.4375 72.746094 35.464844 72.613281 35.515625 72.484375 C 35.570312 72.355469 35.644531 72.242188 35.742188 72.144531 C 35.84375 72.042969 35.957031 71.96875 36.085938 71.914062 C 36.214844 71.863281 36.347656 71.835938 36.484375 71.835938 L 97.375 71.835938 C 97.515625 71.835938 97.648438 71.863281 97.777344 71.914062 C 97.90625 71.96875 98.019531 72.042969 98.117188 72.144531 C 98.214844 72.242188 98.292969 72.355469 98.34375 72.484375 C 98.398438 72.613281 98.425781 72.746094 98.425781 72.886719 C 98.425781 73.023438 98.398438 73.160156 98.34375 73.289062 C 98.292969 73.414062 98.214844 73.53125 98.117188 73.628906 C 98.019531 73.726562 97.90625 73.800781 97.777344 73.855469 C 97.648438 73.910156 97.515625 73.933594 97.375 73.933594 Z M 97.375 73.933594 " fill-opacity="1" fill-rule="nonzero"/><path fill="#4e6aff" d="M 46.984375 72.886719 C 46.984375 73.304688 46.90625 73.703125 46.746094 74.089844 C 46.585938 74.476562 46.355469 74.816406 46.0625 75.113281 C 45.765625 75.40625 45.425781 75.636719 45.039062 75.796875 C 44.652344 75.953125 44.253906 76.035156 43.835938 76.035156 C 43.417969 76.035156 43.015625 75.953125 42.628906 75.796875 C 42.242188 75.636719 41.902344 75.40625 41.609375 75.113281 C 41.3125 74.816406 41.085938 74.476562 40.925781 74.089844 C 40.765625 73.703125 40.683594 73.304688 40.683594 72.886719 C 40.683594 72.46875 40.765625 72.066406 40.925781 71.679688 C 41.085938 71.292969 41.3125 70.953125 41.609375 70.660156 C 41.902344 70.363281 42.242188 70.136719 42.628906 69.976562 C 43.015625 69.816406 43.417969 69.734375 43.835938 69.734375 C 44.253906 69.734375 44.652344 69.816406 45.039062 69.976562 C 45.425781 70.136719 45.765625 70.363281 46.0625 70.660156 C 46.355469 70.953125 46.585938 71.292969 46.746094 71.679688 C 46.90625 72.066406 46.984375 72.46875 46.984375 72.886719 Z M 46.984375 72.886719 " fill-opacity="1" fill-rule="nonzero"/><g clip-path="url(#21644d4ea3)"><path fill="#ffa100" d="M 127.820312 93.882812 C 127.820312 94.535156 127.789062 95.1875 127.722656 95.835938 C 127.660156 96.488281 127.566406 97.132812 127.4375 97.773438 C 127.308594 98.414062 127.152344 99.046875 126.960938 99.671875 C 126.773438 100.296875 126.550781 100.910156 126.300781 101.515625 C 126.050781 102.117188 125.773438 102.707031 125.464844 103.285156 C 125.15625 103.859375 124.820312 104.421875 124.457031 104.964844 C 124.097656 105.507812 123.707031 106.03125 123.292969 106.535156 C 122.878906 107.039062 122.441406 107.523438 121.976562 107.984375 C 121.515625 108.449219 121.03125 108.886719 120.527344 109.300781 C 120.023438 109.714844 119.5 110.105469 118.957031 110.464844 C 118.414062 110.828125 117.851562 111.164062 117.277344 111.472656 C 116.699219 111.78125 116.109375 112.058594 115.507812 112.308594 C 114.902344 112.558594 114.289062 112.78125 113.664062 112.96875 C 113.039062 113.160156 112.40625 113.316406 111.765625 113.445312 C 111.125 113.574219 110.480469 113.667969 109.828125 113.730469 C 109.179688 113.796875 108.527344 113.828125 107.875 113.828125 C 107.21875 113.828125 106.570312 113.796875 105.917969 113.730469 C 105.269531 113.667969 104.625 113.574219 103.984375 113.445312 C 103.339844 113.316406 102.707031 113.160156 102.082031 112.96875 C 101.457031 112.78125 100.84375 112.558594 100.242188 112.308594 C 99.636719 112.058594 99.046875 111.78125 98.472656 111.472656 C 97.894531 111.164062 97.335938 110.828125 96.792969 110.464844 C 96.25 110.105469 95.726562 109.714844 95.21875 109.300781 C 94.714844 108.886719 94.230469 108.449219 93.769531 107.984375 C 93.308594 107.523438 92.871094 107.039062 92.453125 106.535156 C 92.039062 106.03125 91.652344 105.507812 91.289062 104.964844 C 90.925781 104.421875 90.589844 103.859375 90.28125 103.285156 C 89.972656 102.707031 89.695312 102.117188 89.445312 101.515625 C 89.195312 100.910156 88.976562 100.296875 88.785156 99.671875 C 88.597656 99.046875 88.4375 98.414062 88.3125 97.773438 C 88.183594 97.132812 88.085938 96.488281 88.023438 95.835938 C 87.960938 95.1875 87.925781 94.535156 87.925781 93.882812 C 87.925781 93.230469 87.960938 92.578125 88.023438 91.925781 C 88.085938 91.277344 88.183594 90.632812 88.3125 89.992188 C 88.4375 89.351562 88.597656 88.714844 88.785156 88.089844 C 88.976562 87.464844 89.195312 86.851562 89.445312 86.25 C 89.695312 85.644531 89.972656 85.054688 90.28125 84.480469 C 90.589844 83.902344 90.925781 83.34375 91.289062 82.800781 C 91.652344 82.257812 92.039062 81.734375 92.453125 81.226562 C 92.871094 80.722656 93.308594 80.238281 93.769531 79.777344 C 94.230469 79.316406 94.714844 78.878906 95.21875 78.464844 C 95.726562 78.046875 96.25 77.660156 96.792969 77.296875 C 97.335938 76.933594 97.894531 76.597656 98.472656 76.289062 C 99.046875 75.984375 99.636719 75.703125 100.242188 75.453125 C 100.84375 75.203125 101.457031 74.984375 102.082031 74.792969 C 102.707031 74.605469 103.339844 74.445312 103.984375 74.320312 C 104.625 74.191406 105.269531 74.09375 105.917969 74.03125 C 106.570312 73.96875 107.21875 73.933594 107.875 73.933594 C 108.527344 73.933594 109.179688 73.96875 109.828125 74.03125 C 110.480469 74.09375 111.125 74.191406 111.765625 74.320312 C 112.40625 74.445312 113.039062 74.605469 113.664062 74.792969 C 114.289062 74.984375 114.902344 75.203125 115.507812 75.453125 C 116.109375 75.703125 116.699219 75.984375 117.277344 76.289062 C 117.851562 76.597656 118.414062 76.933594 118.957031 77.296875 C 119.5 77.660156 120.023438 78.046875 120.527344 78.464844 C 121.03125 78.878906 121.515625 79.316406 121.976562 79.777344 C 122.441406 80.238281 122.878906 80.722656 123.292969 81.226562 C 123.707031 81.734375 124.097656 82.257812 124.457031 82.800781 C 124.820312 83.34375 125.15625 83.902344 125.464844 84.480469 C 125.773438 85.054688 126.050781 85.644531 126.300781 86.25 C 126.550781 86.851562 126.773438 87.464844 126.960938 88.089844 C 127.152344 88.714844 127.308594 89.351562 127.4375 89.992188 C 127.566406 90.632812 127.660156 91.277344 127.722656 91.925781 C 127.789062 92.578125 127.820312 93.230469 127.820312 93.882812 Z M 127.820312 93.882812 " fill-opacity="1" fill-rule="nonzero"/></g><path fill="#ffffff" d="M 109.972656 91.867188 L 109.972656 85.671875 C 110.28125 85.78125 110.5625 85.933594 110.820312 86.128906 C 111.082031 86.324219 111.304688 86.554688 111.492188 86.820312 C 111.679688 87.085938 111.824219 87.371094 111.921875 87.679688 C 112.023438 87.992188 112.070312 88.308594 112.074219 88.632812 C 112.074219 88.910156 112.125 89.179688 112.234375 89.4375 C 112.339844 89.695312 112.492188 89.921875 112.6875 90.117188 C 112.886719 90.3125 113.113281 90.464844 113.371094 90.574219 C 113.625 90.679688 113.894531 90.730469 114.171875 90.730469 C 114.453125 90.730469 114.71875 90.679688 114.976562 90.574219 C 115.234375 90.464844 115.460938 90.3125 115.65625 90.117188 C 115.855469 89.921875 116.007812 89.695312 116.113281 89.4375 C 116.21875 89.179688 116.273438 88.910156 116.273438 88.632812 C 116.273438 88.195312 116.234375 87.761719 116.15625 87.328125 C 116.078125 86.898438 115.960938 86.476562 115.808594 86.066406 C 115.652344 85.65625 115.464844 85.265625 115.242188 84.886719 C 115.019531 84.511719 114.761719 84.15625 114.476562 83.828125 C 114.1875 83.496094 113.875 83.195312 113.535156 82.917969 C 113.191406 82.644531 112.832031 82.402344 112.445312 82.191406 C 112.0625 81.980469 111.664062 81.808594 111.246094 81.667969 C 110.832031 81.53125 110.40625 81.429688 109.972656 81.367188 L 109.972656 80.234375 C 109.972656 79.957031 109.921875 79.6875 109.8125 79.429688 C 109.707031 79.171875 109.554688 78.945312 109.359375 78.75 C 109.160156 78.550781 108.933594 78.402344 108.675781 78.292969 C 108.421875 78.1875 108.152344 78.132812 107.875 78.132812 C 107.59375 78.132812 107.328125 78.1875 107.070312 78.292969 C 106.8125 78.402344 106.585938 78.550781 106.390625 78.75 C 106.191406 78.945312 106.039062 79.171875 105.933594 79.429688 C 105.828125 79.6875 105.773438 79.957031 105.773438 80.234375 L 105.773438 81.367188 C 105.34375 81.433594 104.921875 81.535156 104.507812 81.675781 C 104.097656 81.816406 103.699219 81.996094 103.320312 82.207031 C 102.9375 82.417969 102.578125 82.660156 102.242188 82.933594 C 101.902344 83.210938 101.589844 83.511719 101.308594 83.84375 C 101.023438 84.175781 100.769531 84.527344 100.550781 84.902344 C 100.328125 85.277344 100.144531 85.671875 99.992188 86.078125 C 99.839844 86.488281 99.726562 86.90625 99.648438 87.335938 C 99.570312 87.765625 99.535156 88.195312 99.535156 88.632812 C 99.535156 89.070312 99.570312 89.5 99.648438 89.929688 C 99.726562 90.359375 99.839844 90.777344 99.992188 91.1875 C 100.144531 91.59375 100.328125 91.988281 100.550781 92.363281 C 100.769531 92.738281 101.023438 93.089844 101.308594 93.421875 C 101.589844 93.75 101.902344 94.054688 102.242188 94.332031 C 102.578125 94.605469 102.9375 94.847656 103.320312 95.058594 C 103.699219 95.269531 104.097656 95.445312 104.507812 95.585938 C 104.921875 95.730469 105.34375 95.832031 105.773438 95.898438 L 105.773438 102.089844 C 105.46875 101.984375 105.183594 101.832031 104.925781 101.636719 C 104.667969 101.4375 104.441406 101.210938 104.253906 100.945312 C 104.066406 100.679688 103.921875 100.390625 103.824219 100.082031 C 103.726562 99.773438 103.675781 99.457031 103.675781 99.132812 C 103.675781 98.851562 103.621094 98.585938 103.515625 98.328125 C 103.40625 98.070312 103.257812 97.84375 103.058594 97.644531 C 102.863281 97.449219 102.636719 97.296875 102.378906 97.191406 C 102.121094 97.085938 101.851562 97.03125 101.574219 97.03125 C 101.296875 97.03125 101.027344 97.085938 100.769531 97.191406 C 100.515625 97.296875 100.289062 97.449219 100.089844 97.644531 C 99.894531 97.84375 99.742188 98.070312 99.636719 98.328125 C 99.527344 98.585938 99.476562 98.851562 99.476562 99.132812 C 99.476562 99.570312 99.515625 100.003906 99.59375 100.433594 C 99.671875 100.863281 99.789062 101.285156 99.941406 101.695312 C 100.09375 102.105469 100.28125 102.5 100.507812 102.875 C 100.730469 103.25 100.984375 103.605469 101.273438 103.9375 C 101.558594 104.265625 101.871094 104.570312 102.214844 104.84375 C 102.554688 105.121094 102.917969 105.363281 103.300781 105.570312 C 103.6875 105.78125 104.085938 105.957031 104.5 106.09375 C 104.917969 106.234375 105.339844 106.332031 105.773438 106.394531 L 105.773438 107.53125 C 105.773438 107.808594 105.828125 108.074219 105.933594 108.332031 C 106.039062 108.589844 106.191406 108.816406 106.390625 109.015625 C 106.585938 109.210938 106.8125 109.363281 107.070312 109.46875 C 107.328125 109.574219 107.59375 109.628906 107.875 109.628906 C 108.152344 109.628906 108.421875 109.574219 108.675781 109.46875 C 108.933594 109.363281 109.160156 109.210938 109.359375 109.015625 C 109.554688 108.816406 109.707031 108.589844 109.8125 108.332031 C 109.921875 108.074219 109.972656 107.808594 109.972656 107.53125 L 109.972656 106.394531 C 110.402344 106.328125 110.824219 106.226562 111.238281 106.085938 C 111.652344 105.945312 112.046875 105.769531 112.429688 105.558594 C 112.808594 105.347656 113.167969 105.105469 113.507812 104.828125 C 113.84375 104.554688 114.15625 104.25 114.441406 103.917969 C 114.722656 103.589844 114.976562 103.234375 115.199219 102.859375 C 115.417969 102.484375 115.605469 102.09375 115.757812 101.683594 C 115.90625 101.277344 116.023438 100.855469 116.097656 100.429688 C 116.175781 100 116.214844 99.566406 116.214844 99.132812 C 116.214844 98.695312 116.175781 98.261719 116.097656 97.832031 C 116.023438 97.40625 115.90625 96.984375 115.757812 96.578125 C 115.605469 96.167969 115.417969 95.777344 115.199219 95.402344 C 114.976562 95.027344 114.722656 94.671875 114.441406 94.34375 C 114.15625 94.011719 113.84375 93.707031 113.507812 93.433594 C 113.167969 93.160156 112.808594 92.914062 112.429688 92.703125 C 112.046875 92.492188 111.652344 92.316406 111.238281 92.175781 C 110.824219 92.035156 110.402344 91.933594 109.972656 91.867188 Z M 105.773438 85.671875 L 105.773438 91.59375 C 105.46875 91.484375 105.191406 91.328125 104.933594 91.132812 C 104.675781 90.9375 104.457031 90.707031 104.269531 90.441406 C 104.085938 90.175781 103.941406 89.890625 103.84375 89.582031 C 103.746094 89.273438 103.699219 88.957031 103.699219 88.632812 C 103.699219 88.308594 103.746094 87.992188 103.84375 87.683594 C 103.941406 87.375 104.085938 87.089844 104.269531 86.824219 C 104.457031 86.558594 104.675781 86.328125 104.933594 86.132812 C 105.191406 85.9375 105.46875 85.78125 105.773438 85.671875 Z M 109.972656 102.089844 L 109.972656 96.171875 C 110.277344 96.28125 110.558594 96.433594 110.816406 96.632812 C 111.070312 96.828125 111.292969 97.058594 111.476562 97.324219 C 111.664062 97.589844 111.804688 97.875 111.902344 98.183594 C 112 98.492188 112.046875 98.808594 112.046875 99.132812 C 112.046875 99.453125 112 99.769531 111.902344 100.078125 C 111.804688 100.386719 111.664062 100.671875 111.476562 100.9375 C 111.292969 101.203125 111.070312 101.433594 110.816406 101.628906 C 110.558594 101.828125 110.277344 101.980469 109.972656 102.089844 Z M 109.972656 102.089844 " fill-opacity="1" fill-rule="nonzero"/></svg>